<svg id="Layer_2" data-name="Layer 2" xmlns="http://www.w3.org/2000/svg" viewBox="0 0 400 300" width="406" height="306" class="illustration"><title>PP</title><path d="M196.76,288.47,24.27,186.52c-5.49-3.08-10.2-8.15-4.85-11.46L192.54,75.28c2.6-1.61,6.54-2.66,9.18-1.13L382.8,179.24c5.49,3.19,6.48,12.1,1,15.29L219.5,288.3A22.94,22.94,0,0,1,196.76,288.47Z" fill="#94dd40"></path><polygon points="75.34 174.27 206.23 250.19 277.52 208.7 146.22 133.19 75.34 174.27" fill="#ddfc68"></polygon><polygon points="75.34 174.27 75.34 183.86 82.55 187.93 82.55 184.74 198.77 251.92 198.77 255.33 206.25 259.84 206.23 250.19 75.34 174.27" fill="#ddfc68"></polygon><polygon points="82.55 187.93 85.39 186.38 82.55 184.74 82.55 187.93" fill="#ddfc68"></polygon><polygon points="206.25 259.84 213.62 255.39 213.62 251.47 270.16 218.5 270.16 222.52 277.52 218.5 277.52 208.7 206.23 250.19 206.25 259.84" fill="#ddfc68"></polygon><polygon points="270.16 222.52 266.79 220.47 270.16 218.5 270.16 222.52" fill="#ddfc68"></polygon><polygon points="75.34 174.27 75.34 183.86 82.55 187.93 82.55 184.74 198.77 251.92 198.77 255.33 206.25 259.84 206.23 250.19 75.34 174.27" fill="#3c537c" opacity="0.16"></polygon><polygon points="82.55 187.93 85.39 186.38 82.55 184.74 82.55 187.93" fill="#ddfc68"></polygon><polygon points="206.25 259.84 213.62 255.39 213.62 251.47 270.16 218.5 270.16 222.52 277.52 218.5 277.52 208.7 206.23 250.19 206.25 259.84" fill="#3c537c" opacity="0.45"></polygon><polygon points="270.16 222.52 266.79 220.47 270.16 218.5 270.16 222.52" fill="#ddfc68"></polygon><path d="M287.49,176.06s0,26.79,27.45,26.79,27.45-26.79,27.45-26.79" fill="#ffe8d9"></path><path d="M314.94,167.11c13.26,0,24.31,5.06,26.85,11.78a7.15,7.15,0,0,0,.6-2.83c0-7.51-12.29-13.59-27.45-13.59s-27.45,6.09-27.45,13.59a7.15,7.15,0,0,0,.6,2.83C290.63,172.17,301.68,167.11,314.94,167.11Z" fill="#e2cdbf"></path><path d="M314.94,189.65c13.2,0,24.22-4.61,26.85-10.76-2.53-6.72-13.59-11.78-26.85-11.78s-24.31,5.06-26.85,11.78C290.72,185,301.74,189.65,314.94,189.65Z" fill="#593821"></path><path d="M286.79,138.41,154.67,120.13a1,1,0,0,0-.22,1.08c.35.93,1.68,1.21,2.53,1.27a.61.61,0,0,1,.36.16l127.28,20A6.42,6.42,0,0,0,286.79,138.41Z" fill="#7c7c7c"></path><path d="M285.44,132.57,156.17,119.13l0,0a3.92,3.92,0,0,0-1.46,1l132.11,18.28A8.74,8.74,0,0,0,285.44,132.57Z" fill="#595959"></path><path d="M301.28,152.18,169.82,134a1,1,0,0,0-.22,1.08c.35.93,1.68,1.21,2.53,1.27a.61.61,0,0,1,.36.16l126.27,19.92A11.85,11.85,0,0,0,301.28,152.18Z" fill="#7c7c7c"></path><path d="M301.38,146.51,171.32,133l0,0a3.92,3.92,0,0,0-1.46,1l131.46,18.15A10,10,0,0,0,301.38,146.51Z" fill="#595959"></path><path d="M115.27,173s3.54,6.91,2.91,8.22-4.05,4.22-4.45,4.11-.8-7.76-.8-7.76-1.31,6.74-2.4,6.56-2.23-2.11-2.11-3.37,4.91-7.53,4.91-7.53" fill="#cc2b27"></path><path d="M115.18,171.17c.49,1.94,5.71,5.47,11.05,5.22S148.7,165.95,150,160.24s0-13.12,0-13.12" fill="#f5f0ea"></path><path d="M150.28,148.09a7.7,7.7,0,0,1-1,6.07c-1.94,2.67-17.61,11.17-22.59,13.6a48.78,48.78,0,0,0-9.16,6l-3.22-2.29" fill="#e0d5ca"></path><path d="M125.31,145.84a28.31,28.31,0,0,1,7.77-4.77,13.5,13.5,0,0,1,14.5,11.59,22.52,22.52,0,0,1-4.94,3.89C141.72,149.43,132.6,145.94,125.31,145.84Z" fill="#fd6105"></path><path d="M113.71,165.68a47.89,47.89,0,0,1,1.73-5.91c4.4-.29,7.72,2.83,9.08,6.79a36.64,36.64,0,0,0-6.46,4.26,19.78,19.78,0,0,0-1.84,1.82c-.56.63-2.47,3.13-3.53,2.67C111.4,174.76,113.5,166.62,113.71,165.68Z" fill="#fd6105"></path><path d="M136.34,140.13a15.6,15.6,0,0,1,2.1-.24c4.15-.19,9.79,1,11.25,5.54a6.66,6.66,0,0,1-1.23,6.13A14.56,14.56,0,0,0,136.34,140.13Z" fill="#fd6105"></path><path d="M129.56,154.26a15.17,15.17,0,0,0-9.71-2.77,29.7,29.7,0,0,1,3.45-3.88l.77-.71c7.07-.32,17,2.94,17.55,10.22-2.38,1.4-4.8,2.74-7.23,4.05A14,14,0,0,0,129.56,154.26Z" fill="#fd6105"></path><path d="M115.88,158.63a32.38,32.38,0,0,1,3.2-6.06c3.28-.14,6.54.25,9.34,2.17a12.94,12.94,0,0,1,5,7c-2.15,1.16-4.31,2.31-6.44,3.5l-1.48.82C124,161.8,120.52,158.6,115.88,158.63Z" fill="#fd6105"></path><path d="M133.08,141.07a18.05,18.05,0,0,1,3.26-.93,14.56,14.56,0,0,1,12.12,11.43,12.28,12.28,0,0,1-.88,1.09A13.5,13.5,0,0,0,133.08,141.07Z" fill="#ff925c"></path><path d="M124.07,146.91c.4-.36.82-.72,1.24-1.07,7.29.1,16.41,3.59,17.33,10.71h0l-1,.58C141,149.84,131.14,146.59,124.07,146.91Z" fill="#ff925c"></path><path d="M128.42,154.74c-2.8-1.92-6.06-2.31-9.34-2.17q.37-.54.76-1.07a15.17,15.17,0,0,1,9.71,2.77,14,14,0,0,1,4.84,6.92l-1,.51A12.94,12.94,0,0,0,128.42,154.74Z" fill="#ff925c"></path><path d="M115.44,159.77q.21-.58.44-1.14c4.64,0,8.13,3.16,9.64,7.38l-1,.55C123.17,162.61,119.85,159.49,115.44,159.77Z" fill="#ff925c"></path><path d="M144.08,187.23c.54,2.16,6.35,6.08,12.29,5.81s25-11.61,26.41-18,0-14.59,0-14.59" fill="#f5f0ea"></path><path d="M145.19,190.11l6.47,2.33s6.55-11.47,12.09-14.17,16.11-7,18.27-9.95a8.56,8.56,0,0,0,1.08-6.75s-14-2.43-24.9,5.58" fill="#e0d5ca"></path><path d="M183.81,166.16c3.66-3.23-1.69-8.07-5.63-9.39A22.38,22.38,0,0,0,173,155.7q-1.67,2.68-3.24,5.42C174.38,162.92,179.08,164.59,183.81,166.16Z" fill="#ffa31d"></path><path d="M150.92,173.3a.59.59,0,0,1-.57-.74A86.7,86.7,0,0,1,154,161.91a42.68,42.68,0,0,0-7.71,7.57.51.51,0,0,1,0,.09q-.6,5.24-.71,10.49c3.69-.66,7.4-1.15,11.13-1.5a23,23,0,0,1,6.11-5.67A90.82,90.82,0,0,0,150.92,173.3Z" fill="#ffa31d"></path><path d="M159.5,165.53l5.21-9a30.91,30.91,0,0,0-8.9,4.14s0,0,0,0a84.87,84.87,0,0,0-4.08,11.39,91.48,91.48,0,0,1,13.18-.29,36.58,36.58,0,0,1,8.73-2.26l-13.78-3.12A.59.59,0,0,1,159.5,165.53Z" fill="#ffa31d"></path><path d="M144.4,180.75q.07-4.76.55-9.48a42.17,42.17,0,0,0-3.07,5c-.17.32-.32.65-.47,1a26.34,26.34,0,0,0,1.77,9.09q5-.69,10-1.3a26,26,0,0,1,2.63-5.2c-3.58.36-7.15.84-10.7,1.5A.6.6,0,0,1,144.4,180.75Z" fill="#ffa31d"></path><path d="M142.23,187.11a27.26,27.26,0,0,1-1.78-6.82,13.62,13.62,0,0,0-.22,3.81,10.22,10.22,0,0,0,3.14,6.5c3.37,3.37,8.09-1.12,9.38-4.36q-4.9.6-9.8,1.27A.62.62,0,0,1,142.23,187.11Z" fill="#ffa31d"></path><path d="M168.36,161.13c1-1.86,2.14-3.69,3.27-5.5a23.52,23.52,0,0,0-5.34.49l-5.37,9.31L176.53,169a25.59,25.59,0,0,0,5.54-1.72l.52-.26c-4.67-1.56-9.3-3.2-13.88-5A.6.6,0,0,1,168.36,161.13Z" fill="#ffa31d"></path><path d="M169.73,161.12q1.56-2.75,3.24-5.42-.67-.06-1.34-.07c-1.12,1.81-2.22,3.64-3.27,5.5a.6.6,0,0,0,.35.86c4.58,1.79,9.22,3.43,13.88,5a6.45,6.45,0,0,0,1.21-.83C179.08,164.59,174.38,162.92,169.73,161.12Z" fill="#ffd297"></path><path d="M166.28,156.12c-.53.11-1.05.23-1.57.37l-5.21,9a.59.59,0,0,0,.35.86l13.78,3.12c1-.17,1.94-.35,2.91-.55l-15.62-3.53Z" fill="#ffd297"></path><path d="M151.72,172.06a84.87,84.87,0,0,1,4.08-11.39s0,0,0,0c-.61.41-1.21.83-1.79,1.28a86.7,86.7,0,0,0-3.66,10.65.59.59,0,0,0,.57.74,90.82,90.82,0,0,1,11.92-.42l.21-.14a16,16,0,0,1,1.86-1A91.48,91.48,0,0,0,151.72,172.06Z" fill="#ffd297"></path><path d="M146.31,169.56a.51.51,0,0,0,0-.09q-.7.88-1.34,1.79-.47,4.73-.55,9.48a.6.6,0,0,0,.74.57c3.55-.66,7.12-1.14,10.7-1.5.28-.43.57-.85.88-1.26-3.73.35-7.44.84-11.13,1.5Q145.71,174.79,146.31,169.56Z" fill="#ffd297"></path><path d="M141.42,177.22a14.81,14.81,0,0,0-1,3.07,27.26,27.26,0,0,0,1.78,6.82.62.62,0,0,0,.72.41q4.89-.68,9.8-1.27c0-.11.1-.23.13-.34.1-.3.23-.6.34-.9q-5,.61-10,1.3A26.34,26.34,0,0,1,141.42,177.22Z" fill="#ffd297"></path><path d="M172.19,165.32c-3.67-2-14.2-4.66-15.65-5a12.85,12.85,0,0,0-3,1.71c-1,.85-1.86,1.81-2.78,2.72l14,4.09s3,.79,3.32,4.88.31,14.4.31,14.4l6.88-4.55v-12.4A5.4,5.4,0,0,0,172.19,165.32Z" fill="#353433"></path><path d="M205.77,225.39c.54,2.16,6.35,6.08,12.29,5.81s25-11.61,26.41-18,0-14.59,0-14.59" fill="#f5f0ea"></path><path d="M206.89,228.27l6.47,2.33s6.55-11.47,12.09-14.17,16.11-7,18.27-9.95a8.56,8.56,0,0,0,1.08-6.75s-14-2.43-24.9,5.58" fill="#e0d5ca"></path><path d="M245.51,204.31c3.66-3.23-1.69-8.07-5.63-9.39a22.38,22.38,0,0,0-5.21-1.07q-1.67,2.68-3.24,5.42C236.07,201.08,240.77,202.75,245.51,204.31Z" fill="#cc2b27"></path><path d="M212.61,211.46a.59.59,0,0,1-.57-.74,86.7,86.7,0,0,1,3.66-10.65,42.68,42.68,0,0,0-7.71,7.57.51.51,0,0,1,0,.09q-.6,5.24-.71,10.49c3.69-.66,7.4-1.15,11.13-1.5a23,23,0,0,1,6.11-5.67A90.82,90.82,0,0,0,212.61,211.46Z" fill="#cc2b27"></path><path d="M221.19,203.69l5.21-9a30.91,30.91,0,0,0-8.9,4.14s0,0,0,0a84.87,84.87,0,0,0-4.08,11.39,91.48,91.48,0,0,1,13.18-.29,36.58,36.58,0,0,1,8.73-2.26l-13.78-3.12A.59.59,0,0,1,221.19,203.69Z" fill="#cc2b27"></path><path d="M206.1,218.9q.07-4.76.55-9.48a42.17,42.17,0,0,0-3.07,5c-.17.32-.32.65-.47,1a26.34,26.34,0,0,0,1.77,9.09q5-.69,10-1.3a26,26,0,0,1,2.63-5.2c-3.58.36-7.15.84-10.7,1.5A.6.6,0,0,1,206.1,218.9Z" fill="#cc2b27"></path><path d="M203.93,225.27a27.26,27.26,0,0,1-1.78-6.82,13.62,13.62,0,0,0-.22,3.81,10.22,10.22,0,0,0,3.14,6.5c3.37,3.37,8.09-1.12,9.38-4.36q-4.9.6-9.8,1.27A.62.62,0,0,1,203.93,225.27Z" fill="#cc2b27"></path><path d="M230.06,199.29c1-1.86,2.14-3.69,3.27-5.5a23.52,23.52,0,0,0-5.34.49l-5.37,9.31,15.62,3.53a25.59,25.59,0,0,0,5.54-1.72l.52-.26c-4.67-1.56-9.3-3.2-13.88-5A.6.6,0,0,1,230.06,199.29Z" fill="#cc2b27"></path><path d="M231.43,199.28q1.56-2.75,3.24-5.42-.67-.06-1.34-.07c-1.12,1.81-2.22,3.64-3.27,5.5a.6.6,0,0,0,.35.86c4.58,1.79,9.22,3.43,13.88,5a6.45,6.45,0,0,0,1.21-.83C240.77,202.75,236.07,201.08,231.43,199.28Z" fill="#ffd297"></path><path d="M228,194.28c-.53.11-1.05.23-1.57.37l-5.21,9a.59.59,0,0,0,.35.86l13.78,3.12c1-.17,1.94-.35,2.91-.55l-15.62-3.53Z" fill="#ffd297"></path><path d="M213.42,210.22a84.87,84.87,0,0,1,4.08-11.39s0,0,0,0c-.61.41-1.21.83-1.79,1.28A86.7,86.7,0,0,0,212,210.71a.59.59,0,0,0,.57.74,90.82,90.82,0,0,1,11.92-.42l.21-.14a16,16,0,0,1,1.86-1A91.48,91.48,0,0,0,213.42,210.22Z" fill="#ffd297"></path><path d="M208,207.72a.51.51,0,0,0,0-.09q-.7.88-1.34,1.79-.47,4.73-.55,9.48a.6.6,0,0,0,.74.57c3.55-.66,7.12-1.14,10.7-1.5.28-.43.57-.85.88-1.26-3.73.35-7.44.84-11.13,1.5Q207.41,212.94,208,207.72Z" fill="#ffd297"></path><path d="M203.11,215.38a14.81,14.81,0,0,0-1,3.07,27.26,27.26,0,0,0,1.78,6.82.62.62,0,0,0,.72.41q4.89-.68,9.8-1.27c0-.11.1-.23.13-.34.1-.3.23-.6.34-.9q-5,.61-10,1.3A26.34,26.34,0,0,1,203.11,215.38Z" fill="#ffd297"></path><path d="M233.89,203.48c-3.67-2-14.2-4.66-15.65-5a12.85,12.85,0,0,0-3,1.71c-1,.85-1.86,1.81-2.78,2.72l14,4.09s3,.79,3.32,4.88.31,14.4.31,14.4l6.88-4.55v-12.4A5.4,5.4,0,0,0,233.89,203.48Z" fill="#353433"></path><path d="M170.2,190v18.34s-.27,3.14,4,5.07,8.2,4,14.6,1.93,26.51-18,26.51-18V179.91" fill="#ef6a3c"></path><path d="M188.87,196.76c3.91-1.09,7.31-3.42,10.72-5.54s6.7-3.94,10.09-5.85c2.21-1.25,5.44-2.5,5.57-5.46a6,6,0,0,0-1.51-4c-4.39-5.23-12.08-5.59-18-3a127.62,127.62,0,0,0-16,8.93c-2.76,1.73-12,5.71-8.95,10.21,2,2.93,5.51,4.27,8.83,4.88a28.32,28.32,0,0,0,5.11.44A15.39,15.39,0,0,0,188.87,196.76Z" fill="#ffdfc8"></path><path d="M201.14,176.29q-9.11,4.76-18,10c-3.4,2-.31,7.33,3.1,5.31q8.85-5.23,18-10C207.75,179.77,204.64,174.46,201.14,176.29Z" fill="#d34722"></path><path d="M201,208.22c2.59-1.78,5.07-3.72,7.6-5.58l.11-11.12s.25-4.28-1.72-6.25-17.54-9.35-17.54-9.35l-7.81,4.74,17.66,10a6.64,6.64,0,0,1,1.69,4.78Z" fill="#253b2c"></path><path d="M200.25,177.54a1.17,1.17,0,0,0-1-1.78,1.19,1.19,0,0,0-.85,2,1.17,1.17,0,0,0,1,1.78A1.19,1.19,0,0,0,200.25,177.54Z" fill="#ef6a3c"></path><path d="M202.83,173.87a1.18,1.18,0,0,0,0,2.35A1.18,1.18,0,0,0,202.83,173.87Z" fill="#ef6a3c"></path><path d="M202.95,178.59a1.18,1.18,0,0,0,0,2.35A1.18,1.18,0,0,0,202.95,178.59Z" fill="#ef6a3c"></path><path d="M206.38,176.35a1.18,1.18,0,0,0,0,2.35A1.18,1.18,0,0,0,206.38,176.35Z" fill="#ef6a3c"></path><path d="M182.51,185.33a1.18,1.18,0,0,0,0,2.35A1.18,1.18,0,0,0,182.51,185.33Z" fill="#ef6a3c"></path><path d="M187.59,183.2a1.18,1.18,0,0,0,0,2.35A1.18,1.18,0,0,0,187.59,183.2Z" fill="#ef6a3c"></path><path d="M190.47,187.66a1.16,1.16,0,0,0-1-1.74,1.18,1.18,0,0,0-.4,2.27,1.16,1.16,0,0,0,1,1.74A1.18,1.18,0,0,0,190.47,187.66Z" fill="#ef6a3c"></path><path d="M185.11,189.11a1.18,1.18,0,0,0,0,2.35A1.18,1.18,0,0,0,185.11,189.11Z" fill="#ef6a3c"></path><path d="M185,185.92a1.18,1.18,0,0,0,0,2.35A1.18,1.18,0,0,0,185,185.92Z" fill="#ef6a3c"></path><path d="M181.8,187.93a1.18,1.18,0,0,0,0,2.35A1.18,1.18,0,0,0,181.8,187.93Z" fill="#ef6a3c"></path><path d="M187.47,189.82a1.18,1.18,0,0,0,0,2.35A1.18,1.18,0,0,0,187.47,189.82Z" fill="#ef6a3c"></path><path d="M200.82,179.54a1.18,1.18,0,0,0,0,2.35A1.18,1.18,0,0,0,200.82,179.54Z" fill="#ef6a3c"></path><path d="M194.8,178.24a1.18,1.18,0,0,0,0,2.35A1.18,1.18,0,0,0,194.8,178.24Z" fill="#ef6a3c"></path><path d="M194.44,183a1.18,1.18,0,0,0,0,2.35A1.18,1.18,0,0,0,194.44,183Z" fill="#ef6a3c"></path><path d="M190.9,182a1.18,1.18,0,0,0,0,2.35A1.18,1.18,0,0,0,190.9,182Z" fill="#ef6a3c"></path><path d="M196.92,180.72a1.18,1.18,0,0,0,0,2.35A1.18,1.18,0,0,0,196.92,180.72Z" fill="#ef6a3c"></path><path d="M193.11,180.35a1.18,1.18,0,0,0,0,2.35A1.18,1.18,0,0,0,193.11,180.35Z" fill="#ef6a3c"></path></svg>