<svg xmlns="http://www.w3.org/2000/svg" xmlns:xlink="http://www.w3.org/1999/xlink" viewBox="0 0 400 300" width="406" height="306" class="illustration"><defs><linearGradient id="linear-gradient" x1="315.86" y1="229.58" x2="291.07" y2="243.33" gradientTransform="matrix(-1, 0, 0, 1, 538.37, 0)" gradientUnits="userSpaceOnUse"><stop offset="0" stop-color="#d4a397"></stop><stop offset="1" stop-color="#fff"></stop></linearGradient><linearGradient id="linear-gradient-2" x1="337" y1="244.83" x2="312.22" y2="258.58" xlink:href="#linear-gradient"></linearGradient></defs><title>PP</title><g style="isolation: isolate;"><g id="Layer_2" data-name="Layer 2"><path d="M196.24,270.72,23.74,168.77c-5.49-3.08-10.2-8.15-4.85-11.46L192,57.53c2.6-1.61,6.54-2.66,9.18-1.13L382.27,161.5c5.49,3.19,6.48,12.1,1,15.29L219,270.56A22.94,22.94,0,0,1,196.24,270.72Z" fill="#ff9203"></path><path d="M192.1,221.67l21-4.32,56,28.26-17,10.27C235.25,245.88,209.53,230.74,192.1,221.67Z" fill="url(#linear-gradient)" style="mix-blend-mode: multiply;"></path><path d="M134.92,181.05c30.46,15.32,92.53,45.81,100.69,49.91a2.64,2.64,0,0,1,1,3.92c-1.81,2.43-5.45,5.47-12,4.41-9.69-1.56-84.58-49.81-92.46-53.85C133.76,183.72,133.46,183,134.92,181.05Z" fill="#9b8b81"></path><path d="M134.92,181.05a4.82,4.82,0,0,0-1.55-3.66c-1.73-1.65-13.44-9.54-16.13-12.05s-12.31-11.53-13.09-11.53-1.3.35-.87,1,21.5,19.16,21.24,19.94-.17,1.21-1.13.87-21.68-19.34-21.68-19.34-1.39-.43-1.3,1l20.81,19.86s.43,1.39-.78,1-20.81-18.73-20.81-18.73-1.13-.69-1.56-.26,0,1.47,0,1.47L118,178.95s.78,1,.09,1.3-1.7-.43-1.7-.43L96.69,162s-1-1.3-1.39-.78a1.32,1.32,0,0,0,0,1.73c.43.52,19.65,18.47,19.65,18.47s5.5,4.77,8.36,5.72,7.33-.79,8.78-1.74" fill="#9b8b81"></path><path d="M137.2,179.68c30.46,15.32,92.53,45.81,100.69,49.91a2.64,2.64,0,0,1,1,3.92c-1.81,2.43-5.45,5.47-12,4.41-9.69-1.56-84.58-49.81-92.46-53.85C136,182.34,135.74,181.59,137.2,179.68Z" fill="#e5e5e5"></path><path d="M137.2,179.68a4.82,4.82,0,0,0-1.55-3.66c-1.73-1.65-13.44-9.54-16.13-12.05s-12.31-11.53-13.09-11.53-1.3.35-.87,1,21.5,19.16,21.24,19.94-.17,1.21-1.13.87S104,154.94,104,154.94s-1.39-.43-1.3,1l20.81,19.86s.43,1.39-.78,1S101.93,158,101.93,158s-1.13-.69-1.56-.26,0,1.47,0,1.47l19.94,18.38s.78,1,.09,1.3-1.7-.43-1.7-.43L99,160.67s-1-1.3-1.39-.78a1.32,1.32,0,0,0,0,1.73c.43.52,19.65,18.47,19.65,18.47s5.5,4.77,8.36,5.72,7.33-.79,8.78-1.74" fill="#e5e5e5"></path><polygon points="179.49 200.72 165.13 202.84 173.24 207.83 188.26 205.06 179.49 200.72" fill="#f4f4f4"></polygon><polygon points="174.56 198.28 161.2 200.41 159.74 199.51 172.83 197.42 174.56 198.28" fill="#f4f4f4"></polygon><polygon points="203.11 212.3 186.02 215.68 189.36 217.65 206.79 214.21 203.11 212.3" fill="#f4f4f4"></polygon><polygon points="216.03 218.77 198.34 222.97 199.62 223.76 217.37 219.43 216.03 218.77" fill="#f4f4f4"></polygon><path d="M315.29,181.57V153.3l-49.35-11.24c-3-1.71-6.07-3.39-9.13-5-11.9-6.39-22.92-14.39-35.21-20.06-12.61-5.82-27.66-6.61-41.41-5.63a79.66,79.66,0,0,0-23.28,5.89L129.51,111v36.18h.06c.67,8.64,7.69,15.61,15.56,20.24,26.82,15.76,63.23,38.36,71.1,43.26,19.71,12.26,50.61,10.74,70.62,1l13.89-6.79a18.43,18.43,0,0,0,2-1.15C306.42,201.27,316.87,193.31,315.29,181.57Z" fill="#ddfc68"></path><path d="M315.29,181.57V153.3l-49.35-11.24c-3-1.71-6.07-3.39-9.13-5-11.9-6.39-22.92-14.39-35.21-20.06-12.61-5.82-27.66-6.61-41.41-5.63a79.66,79.66,0,0,0-23.28,5.89L129.51,111v36.18h.06c.67,8.64,7.69,15.61,15.56,20.24,26.82,15.76,63.23,38.36,71.1,43.26,19.71,12.26,50.61,10.74,70.62,1l13.89-6.79a18.43,18.43,0,0,0,2-1.15C306.42,201.27,316.87,193.31,315.29,181.57Z" fill="#3c537c" opacity="0.14"></path><path d="M303.69,131c-15.59-9-31-18.57-46.88-27.08-11.9-6.39-22.92-14.39-35.21-20.06-12.61-5.82-27.66-6.61-41.41-5.63-15.77,1.12-43.52,11.46-49.48,27.91-4.47,12.34,4.26,22.19,14.42,28.16,26.82,15.76,63.23,38.36,71.1,43.26,19.71,12.26,50.61,10.74,70.62,1l13.89-6.79a18.44,18.44,0,0,0,2-1.15c4.94-3.24,22.28-16.62,5.64-35.73A18.62,18.62,0,0,0,303.69,131Z" fill="#ddfc68"></path><path d="M296.3,131.14c-14.17-8.21-28.2-16.88-42.61-24.61-10.82-5.8-20.83-13.08-32-18.23-11.47-5.29-26.91-7.63-39.41-6.74-14.34,1-40.87,10.91-46.29,25.86-4.07,11.21,7,21.3,16.19,26.72,24.38,14.32,57.47,34.87,64.63,39.32,16.42,10.22,36.9,11.53,55.32,6.73,13.13-3.42,34-11,36.64-26.63,1.12-6.62-2-12.84-6.27-17.72A33.3,33.3,0,0,0,296.3,131.14Z" fill="#3c537c" opacity="0.45"></path><path d="M155.57,136.14c.34.2,78-43.16,78-43.16l7,4L163,140.59Z" fill="#ddfc68"></path><path d="M260.9,102.13c0,5.27-2.28,9.41-6.78,11.28,1.81-1.82,3.55-3.89,4.08-6.37.69-3.21-1-6.06-1.94-9-1.35-4.38-1.54-8.84,1.22-12.69a2.14,2.14,0,0,1,.63-.59,5.76,5.76,0,0,0-.72-.75c-5.18-4.48-3.39,6.36-8.52,5.48a3.93,3.93,0,0,1-1.58-.63c.47,1,1,1.9,1.45,2.85.46,3.31,1.46,6.54,1.93,10a16.66,16.66,0,0,1-5.24,14.85A19,19,0,0,0,248,99.08c-1.93-6-6.2-10.72-7.36-17a2.11,2.11,0,0,1,0-.71,6.27,6.27,0,0,0-1.69.21c-6.67,1.69,1.18,10.5-2.6,11.26A2.23,2.23,0,0,1,234,92a12,12,0,0,0,.41,1.63c1.3,3.82,4.58,6.3,6.12,9.91,2.33,5.45-1.86,10.11-2.75,15.33-.51-2.94.7-5.53.69-8.62,0-4.09-2.11-7.77-4.42-11-1.92-2.69-4.25-5.25-4.74-8.64a9.56,9.56,0,0,1,.24-3.66c-1.67.73-3.63,3.22-3.8,11.32a16.09,16.09,0,0,1-.38,3.44c2,5.4,5.75,10.6,9.16,14.65a2.08,2.08,0,0,1,.44.86c-2.87-2.25-5.9-4.3-8.3-7.08a41.58,41.58,0,0,1-3.8-5.13c-2.06.79-4.17,0-2.28,7.08,3.17,11.86,16,14.34,16,14.34,20.19.51,35-24.87,29.93-29.19-3-2.56-4.89-1.54-6.45-.61.28.88.59,1.76.9,2.64C260.94,100.18,260.91,101.12,260.9,102.13Z" fill="#a9cb1c"></path><path d="M234.05,99.27c2.31,3.23,4.4,6.92,4.42,11,0,3.09-1.2,5.68-.69,8.62.89-5.21,5.08-9.88,2.75-15.33-1.54-3.61-4.83-6.1-6.12-9.91A12,12,0,0,1,234,92c-1.41-1.69-1.5-5.26-2.4-5.32a4.06,4.06,0,0,0-2,.27,9.56,9.56,0,0,0-.24,3.66C229.8,94,232.13,96.58,234.05,99.27Z" fill="#8baa07"></path><path d="M248,99.08a19,19,0,0,1-2.54,17.46,16.66,16.66,0,0,0,5.24-14.85c-.47-3.44-1.47-6.67-1.93-10-.49-.95-1-1.89-1.45-2.85-2.88-2-2.61-7.38-6.68-7.48a2.11,2.11,0,0,0,0,.71C241.77,88.36,246,93.11,248,99.08Z" fill="#8baa07"></path><path d="M257.11,97.23c-2.38-1.49,4.61-8,1-12.47a2.14,2.14,0,0,0-.63.59c-2.75,3.86-2.57,8.31-1.22,12.69.91,2.94,2.63,5.79,1.94,9-.53,2.48-2.28,4.56-4.08,6.37,4.5-1.88,6.74-6,6.78-11.28,0-1,0-1.95.13-2.85-.31-.88-.63-1.76-.9-2.64C259.05,97.27,258.14,97.87,257.11,97.23Z" fill="#8baa07"></path><path d="M235,117.23a2.08,2.08,0,0,0-.44-.86c-3.41-4.05-7.19-9.24-9.16-14.65-.52,2.16-1.5,2.92-2.5,3.3a41.58,41.58,0,0,0,3.8,5.13C229.07,112.93,232.1,115,235,117.23Z" fill="#8baa07"></path><path d="M288.75,115.45c0,5.27-2.28,9.41-6.78,11.28,1.81-1.82,3.55-3.89,4.08-6.37.69-3.21-1-6.06-1.94-9-1.35-4.38-1.54-8.84,1.22-12.69a2.14,2.14,0,0,1,.63-.59,5.76,5.76,0,0,0-.72-.75c-5.18-4.48-3.39,6.36-8.52,5.48a3.93,3.93,0,0,1-1.58-.63c.47,1,1,1.9,1.45,2.85.46,3.31,1.46,6.54,1.93,10a16.66,16.66,0,0,1-5.24,14.85,19,19,0,0,0,2.54-17.46c-1.93-6-6.2-10.72-7.36-17a2.11,2.11,0,0,1,0-.71,6.27,6.27,0,0,0-1.69.21c-6.67,1.69,1.18,10.5-2.6,11.26a2.23,2.23,0,0,1-2.32-.82,12,12,0,0,0,.41,1.63c1.3,3.82,4.58,6.3,6.12,9.91,2.33,5.45-1.86,10.11-2.75,15.33-.51-2.94.7-5.53.69-8.62,0-4.09-2.11-7.77-4.42-11-1.92-2.69-4.25-5.25-4.74-8.64a9.56,9.56,0,0,1,.24-3.66c-1.67.73-3.63,3.22-3.8,11.32a16.09,16.09,0,0,1-.38,3.44c2,5.4,5.75,10.6,9.16,14.65a2.08,2.08,0,0,1,.44.86c-2.87-2.25-5.9-4.3-8.3-7.08a41.58,41.58,0,0,1-3.8-5.13c-2.06.79-4.17,0-2.28,7.08,3.17,11.86,16,14.34,16,14.34,20.19.51,35-24.87,29.93-29.19-3-2.56-4.89-1.54-6.45-.61.28.88.59,1.76.9,2.64C288.79,113.5,288.76,114.45,288.75,115.45Z" fill="#a9cb1c"></path><path d="M261.9,112.59c2.31,3.23,4.4,6.92,4.42,11,0,3.09-1.2,5.68-.69,8.62.89-5.21,5.08-9.88,2.75-15.33-1.54-3.61-4.83-6.1-6.12-9.91a12,12,0,0,1-.41-1.63c-1.41-1.69-1.5-5.26-2.4-5.32a4.06,4.06,0,0,0-2,.27,9.56,9.56,0,0,0-.24,3.66C257.66,107.35,260,109.91,261.9,112.59Z" fill="#8baa07"></path><path d="M275.81,112.4a19,19,0,0,1-2.54,17.46A16.66,16.66,0,0,0,278.51,115c-.47-3.44-1.47-6.67-1.93-10-.49-.95-1-1.89-1.45-2.85-2.88-2-2.61-7.38-6.68-7.48a2.11,2.11,0,0,0,0,.71C269.62,101.69,273.88,106.44,275.81,112.4Z" fill="#8baa07"></path><path d="M285,110.55c-2.38-1.49,4.61-8,1-12.47a2.14,2.14,0,0,0-.63.59c-2.75,3.86-2.57,8.31-1.22,12.69.91,2.94,2.63,5.79,1.94,9-.53,2.48-2.28,4.56-4.08,6.37,4.5-1.88,6.74-6,6.78-11.28,0-1,0-1.95.13-2.85-.31-.88-.63-1.76-.9-2.64C286.9,110.6,286,111.2,285,110.55Z" fill="#8baa07"></path><path d="M262.82,130.56a2.08,2.08,0,0,0-.44-.86c-3.41-4.05-7.19-9.24-9.16-14.65-.52,2.16-1.5,2.92-2.5,3.3a41.58,41.58,0,0,0,3.8,5.13C256.92,126.26,260,128.31,262.82,130.56Z" fill="#8baa07"></path><path d="M312.61,135.91c0,5.27-2.28,9.41-6.78,11.28,1.81-1.82,3.55-3.89,4.08-6.37.69-3.21-1-6.06-1.94-9-1.35-4.38-1.54-8.84,1.22-12.69a2.14,2.14,0,0,1,.63-.59,5.76,5.76,0,0,0-.72-.75c-5.18-4.48-3.39,6.36-8.52,5.48a3.93,3.93,0,0,1-1.58-.63c.47,1,1,1.9,1.45,2.85.46,3.31,1.46,6.54,1.93,10a16.66,16.66,0,0,1-5.24,14.85,19,19,0,0,0,2.54-17.46c-1.93-6-6.2-10.72-7.36-17a2.11,2.11,0,0,1,0-.71,6.27,6.27,0,0,0-1.69.21c-6.67,1.69,1.18,10.5-2.6,11.26a2.23,2.23,0,0,1-2.32-.82,12,12,0,0,0,.41,1.63c1.3,3.82,4.58,6.3,6.12,9.91,2.33,5.45-1.86,10.11-2.75,15.33-.51-2.94.7-5.53.69-8.62,0-4.09-2.11-7.77-4.42-11-1.92-2.69-4.25-5.25-4.74-8.64a9.56,9.56,0,0,1,.24-3.66c-1.67.73-3.63,3.22-3.8,11.32a16.09,16.09,0,0,1-.38,3.44c2,5.4,5.75,10.6,9.16,14.65a2.08,2.08,0,0,1,.44.86c-2.87-2.25-5.9-4.3-8.3-7.08a41.58,41.58,0,0,1-3.8-5.13c-2.06.79-4.17,0-2.28,7.08,3.17,11.86,16,14.34,16,14.34,20.19.51,35-24.87,29.93-29.19-3-2.56-4.89-1.54-6.45-.61.28.88.59,1.76.9,2.64C312.65,134,312.62,134.91,312.61,135.91Z" fill="#a9cb1c"></path><path d="M285.76,133.05c2.31,3.23,4.4,6.92,4.42,11,0,3.09-1.2,5.68-.69,8.62.89-5.21,5.08-9.88,2.75-15.33-1.54-3.61-4.83-6.1-6.12-9.91a12,12,0,0,1-.41-1.63c-1.41-1.69-1.5-5.26-2.4-5.32a4.06,4.06,0,0,0-2,.27,9.56,9.56,0,0,0-.24,3.66C281.52,127.8,283.85,130.36,285.76,133.05Z" fill="#8baa07"></path><path d="M299.67,132.86a19,19,0,0,1-2.54,17.46,16.66,16.66,0,0,0,5.24-14.85c-.47-3.44-1.47-6.67-1.93-10-.49-.95-1-1.89-1.45-2.85-2.88-2-2.61-7.38-6.68-7.48a2.11,2.11,0,0,0,0,.71C293.48,122.14,297.74,126.9,299.67,132.86Z" fill="#8baa07"></path><path d="M308.82,131c-2.38-1.49,4.61-8,1-12.47a2.14,2.14,0,0,0-.63.59c-2.75,3.86-2.57,8.31-1.22,12.69.91,2.94,2.63,5.79,1.94,9-.53,2.48-2.28,4.56-4.08,6.37,4.5-1.88,6.74-6,6.78-11.28,0-1,0-1.95.13-2.85-.31-.88-.63-1.76-.9-2.64C310.76,131.06,309.85,131.66,308.82,131Z" fill="#8baa07"></path><path d="M286.68,151a2.08,2.08,0,0,0-.44-.86c-3.41-4.05-7.19-9.24-9.16-14.65-.52,2.16-1.5,2.92-2.5,3.3a41.58,41.58,0,0,0,3.8,5.13C280.78,146.72,283.81,148.77,286.68,151Z" fill="#8baa07"></path><path d="M319.21,163.59c-1-3.2-4.58-9.61-6.83-11.85-1.42-1.41-4-2-5.79-2.61-2.37-.79-4.78-1.56-7.2-2.21s-5-.88-7.3.41q-2.09,1.17-4.15,2.36-5.76,3.31-11.49,6.69-6.67,3.92-13.33,7.87l-12.3,7.3-8.38,5-2,1.19a38.25,38.25,0,0,0,1.27,6.89c.89,2.65,16.5,10.06,18.41,10.9s7.5-1.06,9.25-2.33S320.17,166.79,319.21,163.59Z" fill="#f39130"></path><path d="M319.21,163.59a38.15,38.15,0,0,0-4.49-8.83c-8.59,7-19.72,12.19-29.25,17.48-7.68,4.27-19.14,10-26.77,14.39,2.15,1,3,3.52,4.26,5.45.92,1.37.52,2.45.35,3.62C269.45,194.81,320.15,166.73,319.21,163.59Z" fill="#d87113"></path><path d="M255.79,183.89c-2.11-.93-4.34-1.58-6.45-2.52a62.65,62.65,0,0,0-8.62-3.54l-.05,0-.16.1a38.25,38.25,0,0,0,1.27,6.89c.89,2.65,16.5,10.06,18.41,10.9a5.88,5.88,0,0,0,3.12,0C264.07,191.1,259.54,185.55,255.79,183.89Z" fill="#ffb36e"></path><path d="M254.78,182.93c-4.17-2.63-8.86-4.34-13.48-6a2.2,2.2,0,0,0-.79,1.84,87.33,87.33,0,0,1,10,4.09c1.1.56,2.18,1.15,3.22,1.81s4.41,2.4,4.62,3.62c.86,4.92-8.73-.53-10.31-1.64-.78-.54-4.31-2.82-1.05-1.42a29.53,29.53,0,0,1,5.3,2.82c1.06.73,2.06-1,1-1.73-2-1.4-7.76-5.37-10.19-3.11a1,1,0,0,0-.16,1.21c1.53,3.59,16.9,12.68,18.25,5.72C261.85,187,256.9,184.27,254.78,182.93Z" fill="#8e4300"></path><path d="M291.09,155.84a1,1,0,0,0,0,2A1,1,0,0,0,291.09,155.84Z" fill="#c66310"></path><path d="M269.67,168.52a1,1,0,0,0,0,2A1,1,0,0,0,269.67,168.52Z" fill="#c66310"></path><path d="M257,174.77a1,1,0,0,0,0,2A1,1,0,0,0,257,174.77Z" fill="#c66310"></path><path d="M276.1,159.59a1,1,0,0,0,0,2A1,1,0,0,0,276.1,159.59Z" fill="#c66310"></path><path d="M277.7,170.84a1,1,0,0,0,0,2A1,1,0,0,0,277.7,170.84Z" fill="#c66310"></path><path d="M265.39,175.66a1,1,0,0,0,0,2A1,1,0,0,0,265.39,175.66Z" fill="#c66310"></path><path d="M263.43,166.38a1,1,0,0,0,0,2A1,1,0,0,0,263.43,166.38Z" fill="#c66310"></path><path d="M285.2,163a1,1,0,0,0,0,2A1,1,0,0,0,285.2,163Z" fill="#c66310"></path><path d="M290.38,150.67a1,1,0,0,0,0,2A1,1,0,0,0,290.38,150.67Z" fill="#c66310"></path><path d="M304.84,152.1a1,1,0,0,0,0,2A1,1,0,0,0,304.84,152.1Z" fill="#c66310"></path><path d="M296.09,161.38a1,1,0,0,0,0,2A1,1,0,0,0,296.09,161.38Z" fill="#c66310"></path><path d="M285.38,166.73a1,1,0,0,0,0,2A1,1,0,0,0,285.38,166.73Z" fill="#c66310"></path><path d="M300,152.45a1,1,0,0,0,0,2A1,1,0,0,0,300,152.45Z" fill="#c66310"></path><path d="M249.41,124.52c-1-3.2-4.58-9.61-6.83-11.85-1.42-1.41-4-2-5.79-2.61-2.37-.79-4.78-1.56-7.2-2.21s-5-.88-7.3.41q-2.09,1.17-4.15,2.36-5.76,3.31-11.49,6.69-6.67,3.92-13.33,7.87l-12.3,7.3-8.38,5-2,1.19a38.25,38.25,0,0,0,1.27,6.89c.89,2.65,16.5,10.06,18.41,10.9s7.5-1.06,9.25-2.33S250.37,127.73,249.41,124.52Z" fill="#f39130"></path><path d="M249.41,124.52a38.15,38.15,0,0,0-4.49-8.83c-8.59,7-19.72,12.19-29.25,17.48-7.68,4.27-19.14,10-26.77,14.39,2.15,1,3,3.52,4.26,5.45.92,1.37.52,2.45.35,3.62C199.66,155.74,250.36,127.67,249.41,124.52Z" fill="#d87113"></path><path d="M186,144.83c-2.11-.93-4.34-1.58-6.45-2.52a62.65,62.65,0,0,0-8.62-3.54l-.05,0-.16.1a38.25,38.25,0,0,0,1.27,6.89c.89,2.65,16.5,10.06,18.41,10.9a5.88,5.88,0,0,0,3.12,0C194.28,152,189.74,146.49,186,144.83Z" fill="#ffb36e"></path><path d="M185,143.87c-4.17-2.63-8.86-4.34-13.48-6a2.2,2.2,0,0,0-.79,1.84,87.33,87.33,0,0,1,10,4.09c1.1.56,2.18,1.15,3.22,1.81s4.41,2.4,4.62,3.62c.86,4.92-8.73-.53-10.31-1.64-.78-.54-4.31-2.82-1.05-1.42a29.53,29.53,0,0,1,5.3,2.82c1.06.73,2.06-1,1-1.73-2-1.4-7.76-5.37-10.19-3.11a1,1,0,0,0-.16,1.21c1.53,3.59,16.9,12.68,18.25,5.72C192.05,148,187.1,145.2,185,143.87Z" fill="#8e4300"></path><path d="M221.29,116.78a1,1,0,0,0,0,2A1,1,0,0,0,221.29,116.78Z" fill="#c66310"></path><path d="M199.88,129.45a1,1,0,0,0,0,2A1,1,0,0,0,199.88,129.45Z" fill="#c66310"></path><path d="M187.2,135.7a1,1,0,0,0,0,2A1,1,0,0,0,187.2,135.7Z" fill="#c66310"></path><path d="M206.3,120.53a1,1,0,0,0,0,2A1,1,0,0,0,206.3,120.53Z" fill="#c66310"></path><path d="M207.91,131.77a1,1,0,0,0,0,2A1,1,0,0,0,207.91,131.77Z" fill="#c66310"></path><path d="M195.59,136.59a1,1,0,0,0,0,2A1,1,0,0,0,195.59,136.59Z" fill="#c66310"></path><path d="M193.63,127.31a1,1,0,0,0,0,2A1,1,0,0,0,193.63,127.31Z" fill="#c66310"></path><path d="M215.4,123.92a1,1,0,0,0,0,2A1,1,0,0,0,215.4,123.92Z" fill="#c66310"></path><path d="M220.58,111.6a1,1,0,0,0,0,2A1,1,0,0,0,220.58,111.6Z" fill="#c66310"></path><path d="M235,113a1,1,0,0,0,0,2A1,1,0,0,0,235,113Z" fill="#c66310"></path><path d="M226.29,122.31a1,1,0,0,0,0,2A1,1,0,0,0,226.29,122.31Z" fill="#c66310"></path><path d="M215.58,127.67a1,1,0,0,0,0,2A1,1,0,0,0,215.58,127.67Z" fill="#c66310"></path><path d="M230.22,113.39a1,1,0,0,0,0,2A1,1,0,0,0,230.22,113.39Z" fill="#c66310"></path><path d="M272.8,138.83c-1-3.2-4.58-9.61-6.83-11.85-1.42-1.41-4-2-5.79-2.61-2.37-.79-4.78-1.56-7.2-2.21s-5-.88-7.3.41q-2.09,1.17-4.15,2.36-5.76,3.31-11.49,6.69-6.67,3.92-13.33,7.87l-12.3,7.3-8.38,5L194,153a38.25,38.25,0,0,0,1.27,6.89c.89,2.65,16.5,10.06,18.41,10.9s7.5-1.06,9.25-2.33S273.76,142,272.8,138.83Z" fill="#f39130"></path><path d="M272.8,138.83A38.15,38.15,0,0,0,268.3,130c-8.59,7-19.72,12.19-29.25,17.48-7.68,4.27-19.14,10-26.77,14.39,2.15,1,3,3.52,4.26,5.45.92,1.37.52,2.45.35,3.62C223,170.05,273.74,142,272.8,138.83Z" fill="#d87113"></path><path d="M209.38,159.14c-2.11-.93-4.34-1.58-6.45-2.52a62.65,62.65,0,0,0-8.62-3.54l-.05,0-.16.1a38.25,38.25,0,0,0,1.27,6.89c.89,2.65,16.5,10.06,18.41,10.9a5.88,5.88,0,0,0,3.12,0C217.66,166.34,213.12,160.79,209.38,159.14Z" fill="#ffb36e"></path><path d="M208.37,158.18c-4.17-2.63-8.86-4.34-13.48-6a2.2,2.2,0,0,0-.79,1.84,87.33,87.33,0,0,1,10,4.09c1.1.56,2.18,1.15,3.22,1.81s4.41,2.4,4.62,3.62c.86,4.92-8.73-.53-10.31-1.64-.78-.54-4.31-2.82-1.05-1.42a29.53,29.53,0,0,1,5.3,2.82c1.06.73,2.06-1,1-1.73-2-1.4-7.76-5.37-10.19-3.11a1,1,0,0,0-.16,1.21c1.53,3.59,16.9,12.68,18.25,5.72C215.44,162.27,210.48,159.51,208.37,158.18Z" fill="#8e4300"></path><path d="M244.68,131.09a1,1,0,0,0,0,2A1,1,0,0,0,244.68,131.09Z" fill="#c66310"></path><path d="M223.26,143.76a1,1,0,0,0,0,2A1,1,0,0,0,223.26,143.76Z" fill="#c66310"></path><path d="M210.58,150a1,1,0,0,0,0,2A1,1,0,0,0,210.58,150Z" fill="#c66310"></path><path d="M229.68,134.84a1,1,0,0,0,0,2A1,1,0,0,0,229.68,134.84Z" fill="#c66310"></path><path d="M231.29,146.08a1,1,0,0,0,0,2A1,1,0,0,0,231.29,146.08Z" fill="#c66310"></path><path d="M219,150.9a1,1,0,0,0,0,2A1,1,0,0,0,219,150.9Z" fill="#c66310"></path><path d="M217,141.62a1,1,0,0,0,0,2A1,1,0,0,0,217,141.62Z" fill="#c66310"></path><path d="M238.79,138.23a1,1,0,0,0,0,2A1,1,0,0,0,238.79,138.23Z" fill="#c66310"></path><path d="M244,125.91a1,1,0,0,0,0,2A1,1,0,0,0,244,125.91Z" fill="#c66310"></path><path d="M258.42,127.34a1,1,0,0,0,0,2A1,1,0,0,0,258.42,127.34Z" fill="#c66310"></path><path d="M249.67,136.62a1,1,0,0,0,0,2A1,1,0,0,0,249.67,136.62Z" fill="#c66310"></path><path d="M239,142a1,1,0,0,0,0,2A1,1,0,0,0,239,142Z" fill="#c66310"></path><path d="M253.6,127.7a1,1,0,0,0,0,2A1,1,0,0,0,253.6,127.7Z" fill="#c66310"></path><path d="M299.35,153c-1-3.2-4.58-9.61-6.83-11.85-1.42-1.41-4-2-5.79-2.61-2.37-.79-4.78-1.56-7.2-2.21s-5-.88-7.3.41q-2.09,1.17-4.15,2.36-5.76,3.31-11.49,6.69-6.67,3.92-13.33,7.87L231,161l-8.38,5-2,1.19a38.25,38.25,0,0,0,1.27,6.89c.89,2.65,16.5,10.06,18.41,10.9s7.5-1.06,9.25-2.33S300.31,156.24,299.35,153Z" fill="#f39130"></path><path d="M299.35,153a38.15,38.15,0,0,0-4.49-8.83c-8.59,7-19.72,12.19-29.25,17.48-7.68,4.27-19.14,10-26.77,14.39,2.15,1,3,3.52,4.26,5.45.92,1.37.52,2.45.35,3.62C249.6,184.26,300.29,156.18,299.35,153Z" fill="#d87113"></path><path d="M235.94,173.34c-2.11-.93-4.34-1.58-6.45-2.52a62.65,62.65,0,0,0-8.62-3.54l-.05,0-.16.1a38.25,38.25,0,0,0,1.27,6.89c.89,2.65,16.5,10.06,18.41,10.9a5.88,5.88,0,0,0,3.12,0C244.22,180.55,239.68,175,235.94,173.34Z" fill="#ffb36e"></path><path d="M234.93,172.38c-4.17-2.63-8.86-4.34-13.48-6a2.2,2.2,0,0,0-.79,1.84,87.33,87.33,0,0,1,10,4.09c1.1.56,2.18,1.15,3.22,1.81s4.41,2.4,4.62,3.62c.86,4.92-8.73-.53-10.31-1.64-.78-.54-4.31-2.82-1.05-1.42a29.53,29.53,0,0,1,5.3,2.82c1.06.73,2.06-1,1-1.73-2-1.4-7.76-5.37-10.19-3.11a1,1,0,0,0-.16,1.21c1.53,3.59,16.9,12.68,18.25,5.72C242,176.47,237,173.71,234.93,172.38Z" fill="#8e4300"></path><path d="M271.23,145.29a1,1,0,0,0,0,2A1,1,0,0,0,271.23,145.29Z" fill="#c66310"></path><path d="M249.81,158a1,1,0,0,0,0,2A1,1,0,0,0,249.81,158Z" fill="#c66310"></path><path d="M237.14,164.21a1,1,0,0,0,0,2A1,1,0,0,0,237.14,164.21Z" fill="#c66310"></path><path d="M256.24,149a1,1,0,0,0,0,2A1,1,0,0,0,256.24,149Z" fill="#c66310"></path><path d="M257.85,160.29a1,1,0,0,0,0,2A1,1,0,0,0,257.85,160.29Z" fill="#c66310"></path><path d="M245.53,165.11a1,1,0,0,0,0,2A1,1,0,0,0,245.53,165.11Z" fill="#c66310"></path><path d="M243.57,155.82a1,1,0,0,0,0,2A1,1,0,0,0,243.57,155.82Z" fill="#c66310"></path><path d="M265.34,152.43a1,1,0,0,0,0,2A1,1,0,0,0,265.34,152.43Z" fill="#c66310"></path><path d="M270.52,140.12a1,1,0,0,0,0,2A1,1,0,0,0,270.52,140.12Z" fill="#c66310"></path><path d="M285,141.54a1,1,0,0,0,0,2A1,1,0,0,0,285,141.54Z" fill="#c66310"></path><path d="M276.23,150.83a1,1,0,0,0,0,2A1,1,0,0,0,276.23,150.83Z" fill="#c66310"></path><path d="M265.52,156.18a1,1,0,0,0,0,2A1,1,0,0,0,265.52,156.18Z" fill="#c66310"></path><path d="M280.16,141.9a1,1,0,0,0,0,2A1,1,0,0,0,280.16,141.9Z" fill="#c66310"></path><ellipse cx="248.85" cy="114.03" rx="6.47" ry="8.25" transform="translate(-22.16 152.55) rotate(-32.71)" fill="#e85521"></ellipse><path d="M250.58,109.91a5.54,5.54,0,0,0-2.62-1.58,1,1,0,1,0-.43,2,3.64,3.64,0,0,1,1.71,1.11,1,1,0,0,0,1.41-.08A1,1,0,0,0,250.58,109.91Z" fill="#fff"></path><path d="M251.26,111.9a1,1,0,0,0,1.08,1.68A1,1,0,0,0,251.26,111.9Z" fill="#fff"></path><ellipse cx="272.2" cy="131.45" rx="6.47" ry="8.25" transform="translate(-27.87 167.93) rotate(-32.71)" fill="#e85521"></ellipse><path d="M273.93,127.33a5.54,5.54,0,0,0-2.62-1.58,1,1,0,1,0-.43,2,3.64,3.64,0,0,1,1.71,1.11,1,1,0,0,0,1.41-.08A1,1,0,0,0,273.93,127.33Z" fill="#fff"></path><path d="M274.61,129.32a1,1,0,0,0,1.08,1.68A1,1,0,0,0,274.61,129.32Z" fill="#fff"></path><ellipse cx="295.12" cy="141.12" rx="6.47" ry="8.25" transform="translate(-29.46 181.85) rotate(-32.71)" fill="#e85521"></ellipse><path d="M296.85,137a5.54,5.54,0,0,0-2.62-1.58,1,1,0,1,0-.43,2,3.64,3.64,0,0,1,1.71,1.11,1,1,0,0,0,1.41-.08A1,1,0,0,0,296.85,137Z" fill="#fff"></path><path d="M297.54,139a1,1,0,0,0,1.08,1.68A1,1,0,0,0,297.54,139Z" fill="#fff"></path><polygon points="147.24 114.26 166.56 104.77 178.88 112.58 159.34 122.49 147.24 114.26" fill="#ffc540"></polygon><polygon points="178.88 112.58 176.97 123.25 158.64 133.02 159.34 122.49 178.88 112.58" fill="#e29d13"></polygon><polygon points="147.24 114.26 146.06 124.25 158.64 133.02 159.34 122.49 147.24 114.26" fill="#ffb229"></polygon><polygon points="199.63 78.87 219.54 87.05 221.86 101.45 201.49 93.4 199.63 78.87" fill="#ffc540"></polygon><polygon points="221.86 101.45 212.6 107.09 193.13 99.85 201.49 93.4 221.86 101.45" fill="#e29d13"></polygon><polygon points="199.63 78.87 191.37 84.62 193.13 99.85 201.49 93.4 199.63 78.87" fill="#ffb229"></polygon><polygon points="175.59 103.88 190.67 88.52 204.88 91.81 189.74 107.64 175.59 103.88" fill="#ffc540"></polygon><polygon points="204.88 91.81 206.61 102.51 192.56 117.81 189.74 107.64 204.88 91.81" fill="#e29d13"></polygon><polygon points="175.59 103.88 177.79 113.7 192.56 117.81 189.74 107.64 175.59 103.88" fill="#ffb229"></polygon><polygon points="167.42 81.37 187.33 89.55 189.65 103.95 169.27 95.89 167.42 81.37" fill="#ffc540"></polygon><polygon points="189.65 103.95 180.39 109.59 160.92 102.35 169.27 95.89 189.65 103.95" fill="#e29d13"></polygon><polygon points="167.42 81.37 159.16 87.12 160.92 102.35 169.27 95.89 167.42 81.37" fill="#ffb229"></polygon><polygon points="149.53 135.63 135.11 119.64 139.26 105.66 154.14 121.73 149.53 135.63" fill="#ffc540"></polygon><polygon points="139.26 105.66 150.05 104.58 164.46 119.53 154.14 121.73 139.26 105.66" fill="#e29d13"></polygon><polygon points="149.53 135.63 159.46 134.03 164.46 119.53 154.14 121.73 149.53 135.63" fill="#ffb229"></polygon><polygon points="158.99 96.95 176.01 110.14 174.4 124.64 156.91 111.44 158.99 96.95" fill="#ffc540"></polygon><polygon points="174.4 124.64 163.97 127.61 147.14 115.44 156.91 111.44 174.4 124.64" fill="#e29d13"></polygon><polygon points="158.99 96.95 149.5 100.28 147.14 115.44 156.91 111.44 158.99 96.95" fill="#ffb229"></polygon><path d="M171,236.91l21-4.32,56,28.26-17,10.27C214.11,261.13,188.38,246,171,236.91Z" fill="url(#linear-gradient-2)" style="mix-blend-mode: multiply;"></path><path d="M113.78,196.3c30.46,15.32,92.53,45.81,100.69,49.91a2.64,2.64,0,0,1,1,3.92c-1.81,2.43-5.45,5.47-12,4.41-9.69-1.56-84.58-49.81-92.46-53.85C112.62,199,112.31,198.22,113.78,196.3Z" fill="#9b8b81"></path><path d="M115.32,197a9.24,9.24,0,0,0-.36-3.91c-1.85-6-6.38-10.48-11.48-13.84-3.89-2.56-8.17-5.08-12.76-6.35-7.63-2.11-16.92,1.29-12.36,10.7,3.84,7.92,11.3,14.79,19.12,18.75,4.75,2.4,10.87,3.74,15.16-.18A8.39,8.39,0,0,0,115.32,197Z" fill="#9b8b81"></path><path d="M116.06,194.93c30.46,15.32,92.53,45.81,100.69,49.91a2.64,2.64,0,0,1,1,3.92c-1.81,2.43-5.45,5.47-12,4.41-9.69-1.56-84.58-49.81-92.46-53.85C114.9,197.59,114.6,196.84,116.06,194.93Z" fill="#e5e5e5"></path><path d="M115.93,194.9a9.24,9.24,0,0,0-.36-3.91c-1.85-6-6.38-10.48-11.48-13.84-3.89-2.56-8.17-5.08-12.76-6.35C83.7,168.7,74.41,172.1,79,181.51c3.84,7.92,11.3,14.79,19.12,18.75,4.75,2.4,10.87,3.74,15.16-.18A8.39,8.39,0,0,0,115.93,194.9Z" fill="#e5e5e5"></path><polygon points="158.34 215.97 143.98 218.09 152.09 223.08 167.11 220.31 158.34 215.97" fill="#f4f4f4"></polygon><polygon points="153.41 213.53 140.06 215.66 138.59 214.75 151.68 212.67 153.41 213.53" fill="#f4f4f4"></polygon><polygon points="181.97 227.54 164.87 230.93 168.22 232.9 185.65 229.46 181.97 227.54" fill="#f4f4f4"></polygon><polygon points="194.88 234.02 177.2 238.22 178.47 239.01 196.22 234.68 194.88 234.02" fill="#f4f4f4"></polygon><path d="M107.38,183.34c-4-3.65-8.47-7.57-13.76-9.38,2.81,1.81,5.3,4.32,7.75,6.38,4.1,3.45,9.15,8.1,8.08,14.07-.8,4.44-4.07,5.5-7.72,5a17.67,17.67,0,0,0,4.48,1c3.89.23,7-3.54,6.92-7.24C113.08,189.15,110.21,185.9,107.38,183.34Z" fill="#cccac6"></path><path d="M85.8,175.68c-.39.16-3.14,1.49-1.65,5.73s7,9.73,7,9.73-9.5-6.75-10.44-11.46S85.8,175.68,85.8,175.68Z" fill="#f4f4f4"></path></g></g></svg>